  0
SECTION
  2
HEADER
  9
$ACADVER
  1
AC1009
  9
$INSBASE
 10
0.0
 20
0.0
 30
0.0
  9
$EXTMIN
 10
-35.3
 20
-4.5
 30
0.0
  9
$EXTMAX
 10
35.3
 20
45.863883
 30
0.0
  9
$LIMMIN
 10
0.0
 20
0.0
  9
$LIMMAX
 10
12.0
 20
9.0
  9
$ORTHOMODE
 70
     1
  9
$REGENMODE
 70
     1
  9
$FILLMODE
 70
     1
  9
$QTEXTMODE
 70
     0
  9
$MIRRTEXT
 70
     1
  9
$DRAGMODE
 70
     2
  9
$LTSCALE
 40
1.0
  9
$OSMODE
 70
    35
  9
$ATTMODE
 70
     1
  9
$TEXTSIZE
 40
0.2
  9
$TRACEWID
 40
0.05
  9
$TEXTSTYLE
  7
STANDARD
  9
$CLAYER
  8
DEFPOINTS
  9
$CELTYPE
  6
BYLAYER
  9
$CECOLOR
 62
   256
  9
$DIMSCALE
 40
1.0
  9
$DIMASZ
 40
0.18
  9
$DIMEXO
 40
0.0625
  9
$DIMDLI
 40
0.38
  9
$DIMRND
 40
0.0
  9
$DIMDLE
 40
0.0
  9
$DIMEXE
 40
0.18
  9
$DIMTP
 40
0.0
  9
$DIMTM
 40
0.0
  9
$DIMTXT
 40
0.18
  9
$DIMCEN
 40
0.09
  9
$DIMTSZ
 40
0.0
  9
$DIMTOL
 70
     0
  9
$DIMLIM
 70
     0
  9
$DIMTIH
 70
     1
  9
$DIMTOH
 70
     1
  9
$DIMSE1
 70
     0
  9
$DIMSE2
 70
     0
  9
$DIMTAD
 70
     0
  9
$DIMZIN
 70
     0
  9
$DIMBLK
  1

  9
$DIMASO
 70
     1
  9
$DIMSHO
 70
     1
  9
$DIMPOST
  1

  9
$DIMAPOST
  1

  9
$DIMALT
 70
     0
  9
$DIMALTD
 70
     2
  9
$DIMALTF
 40
25.4
  9
$DIMLFAC
 40
1.0
  9
$DIMTOFL
 70
     0
  9
$DIMTVP
 40
0.0
  9
$DIMTIX
 70
     0
  9
$DIMSOXD
 70
     0
  9
$DIMSAH
 70
     0
  9
$DIMBLK1
  1

  9
$DIMBLK2
  1

  9
$DIMSTYLE
  2
STANDARD
  9
$DIMCLRD
 70
     0
  9
$DIMCLRE
 70
     0
  9
$DIMCLRT
 70
     0
  9
$DIMTFAC
 40
1.0
  9
$DIMGAP
 40
0.09
  9
$LUNITS
 70
     2
  9
$LUPREC
 70
     4
  9
$SKETCHINC
 40
0.1
  9
$FILLETRAD
 40
0.0
  9
$AUNITS
 70
     0
  9
$AUPREC
 70
     0
  9
$MENU
  1
.
  9
$ELEVATION
 40
0.0
  9
$PELEVATION
 40
0.0
  9
$THICKNESS
 40
0.0
  9
$LIMCHECK
 70
     0
  9
$BLIPMODE
 70
     0
  9
$CHAMFERA
 40
0.5
  9
$CHAMFERB
 40
0.5
  9
$SKPOLY
 70
     1
  9
$TDCREATE
 40
2451287.031763
  9
$TDUPDATE
 40
2451287.002155
  9
$TDINDWG
 40
0.031773
  9
$TDUSRTIMER
 40
0.031773
  9
$USRTIMER
 70
     1
  9
$ANGBASE
 50
0.0
  9
$ANGDIR
 70
     0
  9
$PDMODE
 70
     2
  9
$PDSIZE
 40
0.0
  9
$PLINEWID
 40
0.0
  9
$COORDS
 70
     1
  9
$SPLFRAME
 70
     0
  9
$SPLINETYPE
 70
     6
  9
$SPLINESEGS
 70
     8
  9
$ATTDIA
 70
     0
  9
$ATTREQ
 70
     1
  9
$HANDLING
 70
     1
  9
$HANDSEED
  5
1A7
  9
$SURFTAB1
 70
     6
  9
$SURFTAB2
 70
     6
  9
$SURFTYPE
 70
     6
  9
$SURFU
 70
     6
  9
$SURFV
 70
     6
  9
$UCSNAME
  2

  9
$UCSORG
 10
0.0
 20
0.0
 30
0.0
  9
$UCSXDIR
 10
1.0
 20
0.0
 30
0.0
  9
$UCSYDIR
 10
0.0
 20
1.0
 30
0.0
  9
$PUCSNAME
  2

  9
$PUCSORG
 10
0.0
 20
0.0
 30
0.0
  9
$PUCSXDIR
 10
1.0
 20
0.0
 30
0.0
  9
$PUCSYDIR
 10
0.0
 20
1.0
 30
0.0
  9
$USERI1
 70
     0
  9
$USERI2
 70
     0
  9
$USERI3
 70
     0
  9
$USERI4
 70
     0
  9
$USERI5
 70
     0
  9
$USERR1
 40
0.0
  9
$USERR2
 40
0.0
  9
$USERR3
 40
0.0
  9
$USERR4
 40
0.0
  9
$USERR5
 40
0.0
  9
$WORLDVIEW
 70
     1
  9
$SHADEDGE
 70
     3
  9
$SHADEDIF
 70
    70
  9
$TILEMODE
 70
     1
  9
$MAXACTVP
 70
    48
  9
$PLIMCHECK
 70
     0
  9
$PEXTMIN
 10
1.000000E+020
 20
1.000000E+020
 30
1.000000E+020
  9
$PEXTMAX
 10
-1.000000E+020
 20
-1.000000E+020
 30
-1.000000E+020
  9
$PLIMMIN
 10
0.0
 20
0.0
  9
$PLIMMAX
 10
12.0
 20
9.0
  9
$UNITMODE
 70
     0
  9
$VISRETAIN
 70
     1
  9
$PLINEGEN
 70
     0
  9
$PSLTSCALE
 70
     1
  0
ENDSEC
  0
SECTION
  2
TABLES
  0
TABLE
  2
VPORT
 70
     4
  0
VPORT
  2
*ACTIVE
 70
     0
 10
0.0
 20
0.0
 11
1.0
 21
1.0
 12
-22.181359
 22
28.437545
 13
0.0
 23
0.0
 14
0.5
 24
0.5
 15
0.5
 25
0.5
 16
0.0
 26
0.0
 36
1.0
 17
0.0
 27
0.0
 37
0.0
 40
16.901214
 41
1.658898
 42
50.0
 43
0.0
 44
0.0
 50
0.0
 51
0.0
 71
     0
 72
   100
 73
     1
 74
     1
 75
     0
 76
     0
 77
     0
 78
     0
  0
ENDTAB
  0
TABLE
  2
LTYPE
 70
     1
  0
LTYPE
  2
CONTINUOUS
 70
     0
  3
Solid line
 72
    65
 73
     0
 40
0.0
  0
ENDTAB
  0
TABLE
  2
LAYER
 70
     5
  0
LAYER
  2
0
 70
     0
 62
     7
  6
CONTINUOUS
  0
LAYER
  2
AUXILIARES
 70
     4
 62
    -4
  6
CONTINUOUS
  0
LAYER
  2
MODELO
 70
     0
 62
     5
  6
CONTINUOUS
  0
LAYER
  2
ACOTAR
 70
     0
 62
     6
  6
CONTINUOUS
  0
LAYER
  2
DEFPOINTS
 70
     0
 62
     2
  6
CONTINUOUS
  0
ENDTAB
  0
TABLE
  2
STYLE
 70
     1
  0
STYLE
  2
STANDARD
 70
     0
 40
0.0
 41
1.0
 50
0.0
 71
     0
 42
0.2
  3
txt
  4

  0
ENDTAB
  0
TABLE
  2
VIEW
 70
     0
  0
ENDTAB
  0
TABLE
  2
UCS
 70
     0
  0
ENDTAB
  0
TABLE
  2
APPID
 70
     1
  0
APPID
  2
ACAD
 70
     0
  0
ENDTAB
  0
TABLE
  2
DIMSTYLE
 70
     1
  0
DIMSTYLE
  2
STANDARD
 70
     0
  3

  4

  5

  6

  7

 40
1.0
 41
0.18
 42
0.0625
 43
0.38
 44
0.18
 45
0.0
 46
0.0
 47
0.0
 48
0.0
140
0.18
141
0.09
142
0.0
143
25.4
144
1.0
145
0.0
146
1.0
147
0.09
 71
     0
 72
     0
 73
     1
 74
     1
 75
     0
 76
     0
 77
     0
 78
     0
170
     0
171
     2
172
     0
173
     0
174
     0
175
     0
176
     0
177
     0
178
     0
  0
ENDTAB
  0
ENDSEC
  0
SECTION
  2
BLOCKS
  0
BLOCK
  8
0
  2
$MODEL_SPACE
 70
     0
 10
0.0
 20
0.0
 30
0.0
  3
$MODEL_SPACE
  1

  0
ENDBLK
  5
1B
  8
0
  0
BLOCK
 67
     1
  8
0
  2
$PAPER_SPACE
 70
     0
 10
0.0
 20
0.0
 30
0.0
  3
$PAPER_SPACE
  1

  0
ENDBLK
  5
18
 67
     1
  8
0
  0
ENDSEC
  0
SECTION
  2
ENTITIES
  0
LINE
  5
50
  8
AUXILIARES
 10
0.0
 20
0.0
 30
0.0
 11
0.0
 21
43.3
 31
0.0
  0
LINE
  5
51
  8
AUXILIARES
 10
-21.65
 20
21.65
 30
0.0
 11
21.65
 21
21.65
 31
0.0
  0
CIRCLE
  5
52
  8
AUXILIARES
 10
0.0
 20
21.65
 30
0.0
 40
21.65
  0
LINE
  5
53
  8
AUXILIARES
 10
21.65
 20
0.0
 30
0.0
 11
-21.65
 21
0.0
 31
0.0
  0
LINE
  5
54
  8
AUXILIARES
 10
-21.65
 20
21.65
 30
0.0
 11
-21.65
 21
0.0
 31
0.0
  0
LINE
  5
55
  8
AUXILIARES
 10
21.65
 20
21.65
 30
0.0
 11
21.65
 21
0.0
 31
0.0
  0
LINE
  5
56
  8
AUXILIARES
 10
21.65
 20
-4.5
 30
0.0
 11
-21.65
 21
-4.5
 31
0.0
  0
LINE
  5
57
  8
AUXILIARES
 10
-4.5
 20
0.0
 30
0.0
 11
-4.5
 21
43.3
 31
0.0
  0
LINE
  5
58
  8
AUXILIARES
 10
4.5
 20
0.0
 30
0.0
 11
4.5
 21
43.3
 31
0.0
  0
LINE
  5
5B
  8
MODELO
 10
-21.65
 20
21.65
 30
0.0
 11
-21.65
 21
0.0
 31
0.0
  0
LINE
  5
5C
  8
MODELO
 10
-21.65
 20
0.0
 30
0.0
 11
-21.0
 21
0.0
 31
0.0
  0
LINE
  5
5D
  8
MODELO
 10
-21.0
 20
0.0
 30
0.0
 11
-21.0
 21
-4.5
 31
0.0
  0
LINE
  5
5E
  8
MODELO
 10
-28.3
 20
0.0
 30
0.0
 11
-28.3
 21
-4.5
 31
0.0
  0
LINE
  5
5F
  8
MODELO
 10
-27.65
 20
30.0
 30
0.0
 11
-27.65
 21
0.0
 31
0.0
  0
LINE
  5
60
  8
MODELO
 10
-28.3
 20
0.0
 30
0.0
 11
-27.65
 21
0.0
 31
0.0
  0
LINE
  5
61
  8
MODELO
 10
-21.0
 20
-4.5
 30
0.0
 11
-28.3
 21
-4.5
 31
0.0
  0
ARC
  5
62
  8
MODELO
 10
0.0
 20
21.65
 30
0.0
 40
21.65
 50
101.996515
 51
180.0
  0
LINE
  5
63
  8
MODELO
 10
-4.5
 20
42.827169
 30
0.0
 11
-4.5
 21
44.460359
 31
0.0
  0
ARC
  5
66
  8
MODELO
 10
0.0
 20
21.65
 30
0.0
 40
23.25
 50
101.159937
 51
138.814281
  0
LINE
  5
6F
  8
MODELO
 10
-27.65
 20
30.0
 30
0.0
 11
-24.65
 21
30.2
 31
0.0
  0
LINE
  5
70
  8
MODELO
 10
-24.65
 20
30.2
 30
0.0
 11
-24.65
 21
32.2
 31
0.0
  0
LINE
  5
71
  8
MODELO
 10
-24.65
 20
32.2
 30
0.0
 11
-22.958343
 21
32.312777
 31
0.0
  0
LINE
  5
74
  8
MODELO
 10
-18.4
 20
36.9
 30
0.0
 11
-17.497463
 21
36.960169
 31
0.0
  0
LINE
  5
7A
  8
MODELO
 10
-22.776846
 20
33.038766
 30
0.0
 11
-22.082974
 21
33.085024
 31
0.0
  0
LINE
  5
7B
  8
MODELO
 10
-21.901477
 20
33.811013
 30
0.0
 11
-21.207605
 21
33.857271
 31
0.0
  0
LINE
  5
7C
  8
MODELO
 10
-21.026107
 20
34.58326
 30
0.0
 11
-20.332235
 21
34.629518
 31
0.0
  0
LINE
  5
7D
  8
MODELO
 10
-20.150738
 20
35.355506
 30
0.0
 11
-19.456866
 21
35.401764
 31
0.0
  0
LINE
  5
7E
  8
MODELO
 10
-19.275369
 20
36.127753
 30
0.0
 11
-18.581497
 21
36.174011
 31
0.0
  0
LINE
  5
7F
  8
MODELO
 10
-18.4
 20
36.9
 30
0.0
 11
-18.581497
 21
36.174011
 31
0.0
  0
LINE
  5
80
  8
MODELO
 10
-19.275369
 20
36.127753
 30
0.0
 11
-19.456866
 21
35.401764
 31
0.0
  0
LINE
  5
81
  8
MODELO
 10
-20.150738
 20
35.355506
 30
0.0
 11
-20.332235
 21
34.629518
 31
0.0
  0
LINE
  5
82
  8
MODELO
 10
-21.026107
 20
34.58326
 30
0.0
 11
-21.207605
 21
33.857271
 31
0.0
  0
LINE
  5
83
  8
MODELO
 10
-21.901477
 20
33.811013
 30
0.0
 11
-22.082974
 21
33.085024
 31
0.0
  0
LINE
  5
84
  8
MODELO
 10
-22.776846
 20
33.038766
 30
0.0
 11
-22.958343
 21
32.312777
 31
0.0
  0
LINE
  5
86
  8
MODELO
 10
21.65
 20
21.65
 30
0.0
 11
21.65
 21
0.0
 31
0.0
  0
LINE
  5
87
  8
MODELO
 10
27.65
 20
30.0
 30
0.0
 11
27.65
 21
0.0
 31
0.0
  0
LINE
  5
88
  8
MODELO
 10
21.0
 20
-4.5
 30
0.0
 11
28.3
 21
-4.5
 31
0.0
  0
LINE
  5
89
  8
MODELO
 10
28.3
 20
0.0
 30
0.0
 11
28.3
 21
-4.5
 31
0.0
  0
LINE
  5
8A
  8
MODELO
 10
28.3
 20
0.0
 30
0.0
 11
27.65
 21
0.0
 31
0.0
  0
LINE
  5
8B
  8
MODELO
 10
21.0
 20
0.0
 30
0.0
 11
21.0
 21
-4.5
 31
0.0
  0
LINE
  5
8C
  8
MODELO
 10
21.65
 20
0.0
 30
0.0
 11
21.0
 21
0.0
 31
0.0
  0
LINE
  5
8D
  8
MODELO
 10
24.65
 20
32.2
 30
0.0
 11
22.958343
 21
32.312777
 31
0.0
  0
LINE
  5
8E
  8
MODELO
 10
27.65
 20
30.0
 30
0.0
 11
24.65
 21
30.2
 31
0.0
  0
LINE
  5
8F
  8
MODELO
 10
24.65
 20
30.2
 30
0.0
 11
24.65
 21
32.2
 31
0.0
  0
ARC
  5
90
  8
MODELO
 10
0.0
 20
21.65
 30
0.0
 40
23.25
 50
41.185719
 51
78.840063
  0
ARC
  5
91
  8
MODELO
 10
0.0
 20
21.65
 30
0.0
 40
21.65
 50
0.0
 51
78.003485
  0
LINE
  5
92
  8
MODELO
 10
19.275369
 20
36.127753
 30
0.0
 11
18.581497
 21
36.174011
 31
0.0
  0
LINE
  5
93
  8
MODELO
 10
21.026107
 20
34.58326
 30
0.0
 11
21.207605
 21
33.857271
 31
0.0
  0
LINE
  5
94
  8
MODELO
 10
21.901477
 20
33.811013
 30
0.0
 11
21.207605
 21
33.857271
 31
0.0
  0
LINE
  5
95
  8
MODELO
 10
22.776846
 20
33.038766
 30
0.0
 11
22.082974
 21
33.085024
 31
0.0
  0
LINE
  5
96
  8
MODELO
 10
22.776846
 20
33.038766
 30
0.0
 11
22.958343
 21
32.312777
 31
0.0
  0
LINE
  5
97
  8
MODELO
 10
21.901477
 20
33.811013
 30
0.0
 11
22.082974
 21
33.085024
 31
0.0
  0
LINE
  5
98
  8
MODELO
 10
20.150738
 20
35.355506
 30
0.0
 11
19.456866
 21
35.401764
 31
0.0
  0
LINE
  5
99
  8
MODELO
 10
20.150738
 20
35.355506
 30
0.0
 11
20.332235
 21
34.629518
 31
0.0
  0
LINE
  5
9A
  8
MODELO
 10
21.026107
 20
34.58326
 30
0.0
 11
20.332235
 21
34.629518
 31
0.0
  0
LINE
  5
9B
  8
MODELO
 10
19.275369
 20
36.127753
 30
0.0
 11
19.456866
 21
35.401764
 31
0.0
  0
LINE
  5
9C
  8
MODELO
 10
18.4
 20
36.9
 30
0.0
 11
18.581497
 21
36.174011
 31
0.0
  0
LINE
  5
9D
  8
MODELO
 10
18.4
 20
36.9
 30
0.0
 11
17.497463
 21
36.960169
 31
0.0
  0
LINE
  5
9E
  8
MODELO
 10
4.5
 20
42.827169
 30
0.0
 11
4.5
 21
44.460359
 31
0.0
  0
LINE
  5
BC
  8
MODELO
 10
-27.65
 20
0.0
 30
0.0
 11
-21.65
 21
0.0
 31
0.0
  0
LINE
  5
BD
  8
MODELO
 10
-27.65
 20
12.5
 30
0.0
 11
-21.65
 21
12.5
 31
0.0
  0
LINE
  5
BE
  8
MODELO
 10
-21.65
 20
21.65
 30
0.0
 11
-27.65
 21
21.65
 31
0.0
  0
LINE
  5
BF
  8
MODELO
 10
-22.958343
 20
32.312777
 30
0.0
 11
-18.842178
 21
32.312777
 31
0.0
  0
LINE
  5
C0
  8
MODELO
 10
-20.241487
 20
34.992512
 30
0.0
 11
-17.049923
 21
34.992512
 31
0.0
  0
LINE
  5
C1
  8
MODELO
 10
-20.801983
 20
27.65
 30
0.0
 11
-27.65
 21
27.65
 31
0.0
  0
LINE
  5
E1
  8
MODELO
 10
-8.110233
 20
41.72353
 30
0.0
 11
-8.709603
 21
43.207025
 31
0.0
  0
LINE
  5
E2
  8
MODELO
 10
-11.472752
 20
40.010241
 30
0.0
 11
-12.320623
 21
41.367118
 31
0.0
  0
LINE
  5
E3
  8
MODELO
 10
-14.486678
 20
37.739085
 30
0.0
 11
-15.557287
 21
38.928117
 31
0.0
  0
LINE
  5
E4
  8
MODELO
 10
27.65
 20
0.0
 30
0.0
 11
21.65
 21
0.0
 31
0.0
  0
LINE
  5
E5
  8
MODELO
 10
27.65
 20
12.5
 30
0.0
 11
21.65
 21
12.5
 31
0.0
  0
LINE
  5
E6
  8
MODELO
 10
21.65
 20
21.65
 30
0.0
 11
27.65
 21
21.65
 31
0.0
  0
LINE
  5
E7
  8
MODELO
 10
20.801983
 20
27.65
 30
0.0
 11
27.65
 21
27.65
 31
0.0
  0
LINE
  5
E8
  8
MODELO
 10
22.958343
 20
32.312777
 30
0.0
 11
18.842178
 21
32.312777
 31
0.0
  0
LINE
  5
E9
  8
MODELO
 10
20.241487
 20
34.992512
 30
0.0
 11
17.049923
 21
34.992512
 31
0.0
  0
LINE
  5
EA
  8
MODELO
 10
14.486678
 20
37.739085
 30
0.0
 11
15.557287
 21
38.928117
 31
0.0
  0
LINE
  5
EB
  8
MODELO
 10
11.472752
 20
40.010241
 30
0.0
 11
12.320623
 21
41.367118
 31
0.0
  0
LINE
  5
EC
  8
MODELO
 10
8.110233
 20
41.72353
 30
0.0
 11
8.709603
 21
43.207025
 31
0.0
  0
LINE
  5
ED
  8
MODELO
 10
4.5
 20
42.827169
 30
0.0
 11
4.5
 21
44.460359
 31
0.0
  0
LINE
  5
EE
  8
AUXILIARES
 10
-28.3
 20
0.0
 30
0.0
 11
-35.3
 21
0.0
 31
0.0
  0
LINE
  5
EF
  8
AUXILIARES
 10
28.3
 20
0.0
 30
0.0
 11
35.3
 21
0.0
 31
0.0
  0
LINE
  5
FD
  8
0
 10
-27.65
 20
0.0
 30
0.0
 11
-21.65
 21
12.5
 31
0.0
  0
LINE
  5
FE
  8
0
 10
-21.65
 20
12.5
 30
0.0
 11
-27.65
 21
21.65
 31
0.0
  0
LINE
  5
FF
  8
0
 10
-27.65
 20
21.65
 30
0.0
 11
-20.801983
 21
27.65
 31
0.0
  0
POLYLINE
  5
100
  8
DEFPOINTS
 66
     1
 10
0.0
 20
0.0
 30
0.0
  0
VERTEX
  5
12F
  8
DEFPOINTS
 10
-21.0
 20
0.0
 30
0.0
  0
VERTEX
  5
130
  8
DEFPOINTS
 10
-21.65
 20
0.0
 30
0.0
  0
VERTEX
  5
131
  8
DEFPOINTS
 10
-27.65
 20
0.0
 30
0.0
  0
VERTEX
  5
132
  8
DEFPOINTS
 10
-28.3
 20
0.0
 30
0.0
  0
VERTEX
  5
133
  8
DEFPOINTS
 10
-28.3
 20
-4.5
 30
0.0
  0
VERTEX
  5
134
  8
DEFPOINTS
 10
-21.0
 20
-4.5
 30
0.0
  0
VERTEX
  5
135
  8
DEFPOINTS
 10
-21.0
 20
0.0
 30
0.0
  0
SEQEND
  5
136
  8
DEFPOINTS
  0
LINE
  5
10A
  8
DEFPOINTS
 10
-27.65
 20
6.25
 30
0.0
 11
-21.65
 21
6.25
 31
0.0
  0
LINE
  5
10D
  8
DEFPOINTS
 10
-27.65
 20
17.075
 30
0.0
 11
-21.65
 21
17.075
 31
0.0
  0
LINE
  5
10E
  8
DEFPOINTS
 10
-11.341019
 20
17.075
 30
0.0
 11
-17.620227
 21
17.075
 31
0.0
  0
LINE
  5
10F
  8
DEFPOINTS
 10
-27.65
 20
24.65
 30
0.0
 11
-21.44114
 21
24.65
 31
0.0
  0
LINE
  5
110
  8
DEFPOINTS
 10
-24.65
 20
30.2
 30
0.0
 11
-19.890199
 21
30.2
 31
0.0
  0
LINE
  5
111
  8
DEFPOINTS
 10
-21.207605
 20
33.857271
 30
0.0
 11
-17.880298
 21
33.857271
 31
0.0
  0
LINE
  5
112
  8
DEFPOINTS
 10
-17.497463
 20
36.960169
 30
0.0
 11
-16.293337
 21
35.906566
 31
0.0
  0
LINE
  5
113
  8
DEFPOINTS
 10
-17.497463
 20
36.960169
 30
0.0
 11
-15.307554
 21
36.960169
 31
0.0
  0
LINE
  5
114
  8
DEFPOINTS
 10
-14.486678
 20
37.739085
 30
0.0
 11
-12.320623
 21
41.367118
 31
0.0
  0
LINE
  5
115
  8
DEFPOINTS
 10
-12.320623
 20
41.367118
 30
0.0
 11
-8.110233
 21
41.72353
 31
0.0
  0
LINE
  5
116
  8
DEFPOINTS
 10
-8.110233
 20
41.72353
 30
0.0
 11
-4.5
 21
44.460359
 31
0.0
  0
LINE
  5
117
  8
DEFPOINTS
 10
-13.934242
 20
40.261808
 30
0.0
 11
-12.975327
 21
38.980995
 31
0.0
  0
LINE
  5
118
  8
DEFPOINTS
 10
-10.619812
 20
42.332894
 30
0.0
 11
-9.888986
 21
40.909555
 31
0.0
  0
LINE
  5
119
  8
DEFPOINTS
 10
-6.559086
 20
43.955625
 30
0.0
 11
-6.107708
 21
42.420614
 31
0.0
  0
POLYLINE
  5
11D
  8
DEFPOINTS
 66
     1
 10
0.0
 20
0.0
 30
0.0
  0
VERTEX
  5
137
  8
DEFPOINTS
 10
-4.5
 20
44.460359
 30
0.0
  0
VERTEX
  5
138
  8
DEFPOINTS
 10
-6.559086
 20
43.955625
 30
0.0
  0
VERTEX
  5
139
  8
DEFPOINTS
 10
-6.107708
 20
42.420614
 30
0.0
  0
VERTEX
  5
13A
  8
DEFPOINTS
 10
-4.5
 20
42.827169
 30
0.0
  0
VERTEX
  5
13B
  8
DEFPOINTS
 10
-4.5
 20
44.460359
 30
0.0
  0
SEQEND
  5
13C
  8
DEFPOINTS
  0
POLYLINE
  5
11E
  8
DEFPOINTS
 66
     1
 10
0.0
 20
0.0
 30
0.0
  0
VERTEX
  5
13D
  8
DEFPOINTS
 10
-6.559086
 20
43.955625
 30
0.0
  0
VERTEX
  5
13E
  8
DEFPOINTS
 10
-8.709603
 20
43.207025
 30
0.0
  0
VERTEX
  5
13F
  8
DEFPOINTS
 10
-8.110233
 20
41.72353
 30
0.0
  0
VERTEX
  5
140
  8
DEFPOINTS
 10
-6.107708
 20
42.420614
 30
0.0
  0
VERTEX
  5
141
  8
DEFPOINTS
 10
-6.559086
 20
43.955625
 30
0.0
  0
SEQEND
  5
142
  8
DEFPOINTS
  0
POLYLINE
  5
11F
  8
DEFPOINTS
 66
     1
 10
0.0
 20
0.0
 30
0.0
  0
VERTEX
  5
143
  8
DEFPOINTS
 10
-8.709603
 20
43.207025
 30
0.0
  0
VERTEX
  5
144
  8
DEFPOINTS
 10
-10.619812
 20
42.332894
 30
0.0
  0
VERTEX
  5
145
  8
DEFPOINTS
 10
-9.888986
 20
40.909555
 30
0.0
  0
VERTEX
  5
146
  8
DEFPOINTS
 10
-8.110233
 20
41.72353
 30
0.0
  0
VERTEX
  5
147
  8
DEFPOINTS
 10
-8.709603
 20
43.207025
 30
0.0
  0
SEQEND
  5
148
  8
DEFPOINTS
  0
POLYLINE
  5
120
  8
DEFPOINTS
 66
     1
 10
0.0
 20
0.0
 30
0.0
  0
VERTEX
  5
149
  8
DEFPOINTS
 10
-10.619812
 20
42.332894
 30
0.0
  0
VERTEX
  5
14A
  8
DEFPOINTS
 10
-12.320623
 20
41.367118
 30
0.0
  0
VERTEX
  5
14B
  8
DEFPOINTS
 10
-11.472752
 20
40.010241
 30
0.0
  0
VERTEX
  5
14C
  8
DEFPOINTS
 10
-9.888986
 20
40.909555
 30
0.0
  0
SEQEND
  5
14D
  8
DEFPOINTS
  0
POLYLINE
  5
121
  8
DEFPOINTS
 66
     1
 10
0.0
 20
0.0
 30
0.0
  0
VERTEX
  5
14E
  8
DEFPOINTS
 10
-12.320623
 20
41.367118
 30
0.0
  0
VERTEX
  5
14F
  8
DEFPOINTS
 10
-13.934242
 20
40.261808
 30
0.0
  0
VERTEX
  5
150
  8
DEFPOINTS
 10
-12.975327
 20
38.980995
 30
0.0
  0
VERTEX
  5
151
  8
DEFPOINTS
 10
-11.472752
 20
40.010241
 30
0.0
  0
SEQEND
  5
152
  8
DEFPOINTS
  0
POLYLINE
  5
122
  8
DEFPOINTS
 66
     1
 10
0.0
 20
0.0
 30
0.0
  0
VERTEX
  5
153
  8
DEFPOINTS
 10
-13.934242
 20
40.261808
 30
0.0
  0
VERTEX
  5
154
  8
DEFPOINTS
 10
-15.557287
 20
38.928117
 30
0.0
  0
VERTEX
  5
155
  8
DEFPOINTS
 10
-14.486678
 20
37.739085
 30
0.0
  0
VERTEX
  5
156
  8
DEFPOINTS
 10
-12.975327
 20
38.980995
 30
0.0
  0
VERTEX
  5
157
  8
DEFPOINTS
 10
-13.934242
 20
40.261808
 30
0.0
  0
SEQEND
  5
158
  8
DEFPOINTS
  0
POLYLINE
  5
123
  8
DEFPOINTS
 66
     1
 10
0.0
 20
0.0
 30
0.0
  0
VERTEX
  5
159
  8
DEFPOINTS
 10
-15.557287
 20
38.928117
 30
0.0
  0
VERTEX
  5
15A
  8
DEFPOINTS
 10
-17.497463
 20
36.960169
 30
0.0
  0
VERTEX
  5
15B
  8
DEFPOINTS
 10
-16.293337
 20
35.906566
 30
0.0
  0
VERTEX
  5
15C
  8
DEFPOINTS
 10
-14.486678
 20
37.739085
 30
0.0
  0
VERTEX
  5
15D
  8
DEFPOINTS
 10
-15.557287
 20
38.928117
 30
0.0
  0
SEQEND
  5
15E
  8
DEFPOINTS
  0
POLYLINE
  5
124
  8
DEFPOINTS
 66
     1
 10
0.0
 20
0.0
 30
0.0
  0
VERTEX
  5
15F
  8
DEFPOINTS
 10
-17.497463
 20
36.960169
 30
0.0
  0
VERTEX
  5
160
  8
DEFPOINTS
 10
-18.4
 20
36.9
 30
0.0
  0
VERTEX
  5
161
  8
DEFPOINTS
 10
-18.581497
 20
36.174011
 30
0.0
  0
VERTEX
  5
162
  8
DEFPOINTS
 10
-19.275369
 20
36.127753
 30
0.0
  0
VERTEX
  5
163
  8
DEFPOINTS
 10
-19.456866
 20
35.401764
 30
0.0
  0
VERTEX
  5
164
  8
DEFPOINTS
 10
-20.150738
 20
35.355506
 30
0.0
  0
VERTEX
  5
165
  8
DEFPOINTS
 10
-20.241487
 20
34.992512
 30
0.0
  0
VERTEX
  5
166
  8
DEFPOINTS
 10
-17.049923
 20
34.992512
 30
0.0
  0
VERTEX
  5
167
  8
DEFPOINTS
 10
-16.293337
 20
35.906566
 30
0.0
  0
VERTEX
  5
168
  8
DEFPOINTS
 10
-17.497463
 20
36.960169
 30
0.0
  0
SEQEND
  5
169
  8
DEFPOINTS
  0
POLYLINE
  5
125
  8
DEFPOINTS
 66
     1
 10
0.0
 20
0.0
 30
0.0
  0
VERTEX
  5
16A
  8
DEFPOINTS
 10
-17.049923
 20
34.992512
 30
0.0
  0
VERTEX
  5
16B
  8
DEFPOINTS
 10
-20.241487
 20
34.992512
 30
0.0
  0
VERTEX
  5
16C
  8
DEFPOINTS
 10
-20.332235
 20
34.629518
 30
0.0
  0
VERTEX
  5
16D
  8
DEFPOINTS
 10
-21.026107
 20
34.58326
 30
0.0
  0
VERTEX
  5
16E
  8
DEFPOINTS
 10
-21.207605
 20
33.857271
 30
0.0
  0
VERTEX
  5
16F
  8
DEFPOINTS
 10
-17.880298
 20
33.857271
 30
0.0
  0
VERTEX
  5
170
  8
DEFPOINTS
 10
-17.049923
 20
34.992512
 30
0.0
  0
SEQEND
  5
171
  8
DEFPOINTS
  0
POLYLINE
  5
126
  8
DEFPOINTS
 66
     1
 10
0.0
 20
0.0
 30
0.0
  0
VERTEX
  5
172
  8
DEFPOINTS
 10
-21.207605
 20
33.857271
 30
0.0
  0
VERTEX
  5
173
  8
DEFPOINTS
 10
-21.901477
 20
33.811013
 30
0.0
  0
VERTEX
  5
174
  8
DEFPOINTS
 10
-22.082974
 20
33.085024
 30
0.0
  0
VERTEX
  5
175
  8
DEFPOINTS
 10
-22.776846
 20
33.038766
 30
0.0
  0
VERTEX
  5
176
  8
DEFPOINTS
 10
-22.958343
 20
32.312777
 30
0.0
  0
VERTEX
  5
177
  8
DEFPOINTS
 10
-18.842178
 20
32.312777
 30
0.0
  0
VERTEX
  5
178
  8
DEFPOINTS
 10
-17.880298
 20
33.857271
 30
0.0
  0
SEQEND
  5
179
  8
DEFPOINTS
  0
POLYLINE
  5
127
  8
DEFPOINTS
 66
     1
 10
0.0
 20
0.0
 30
0.0
  0
VERTEX
  5
17A
  8
DEFPOINTS
 10
-21.65
 20
0.0
 30
0.0
  0
VERTEX
  5
17B
  8
DEFPOINTS
 10
-21.65
 20
6.25
 30
0.0
  0
VERTEX
  5
17C
  8
DEFPOINTS
 10
-27.65
 20
6.25
 30
0.0
  0
VERTEX
  5
17D
  8
DEFPOINTS
 10
-27.65
 20
0.0
 30
0.0
  0
SEQEND
  5
17E
  8
DEFPOINTS
  0
POLYLINE
  5
128
  8
DEFPOINTS
 66
     1
 10
0.0
 20
0.0
 30
0.0
  0
VERTEX
  5
17F
  8
DEFPOINTS
 10
-21.65
 20
6.25
 30
0.0
  0
VERTEX
  5
180
  8
DEFPOINTS
 10
-21.65
 20
12.5
 30
0.0
  0
VERTEX
  5
181
  8
DEFPOINTS
 10
-27.65
 20
12.5
 30
0.0
  0
VERTEX
  5
182
  8
DEFPOINTS
 10
-27.65
 20
6.25
 30
0.0
  0
SEQEND
  5
183
  8
DEFPOINTS
  0
POLYLINE
  5
129
  8
DEFPOINTS
 66
     1
 10
0.0
 20
0.0
 30
0.0
  0
VERTEX
  5
184
  8
DEFPOINTS
 10
-21.65
 20
12.5
 30
0.0
  0
VERTEX
  5
185
  8
DEFPOINTS
 10
-21.65
 20
17.075
 30
0.0
  0
VERTEX
  5
186
  8
DEFPOINTS
 10
-27.65
 20
17.075
 30
0.0
  0
VERTEX
  5
187
  8
DEFPOINTS
 10
-27.65
 20
12.5
 30
0.0
  0
SEQEND
  5
188
  8
DEFPOINTS
  0
POLYLINE
  5
12A
  8
DEFPOINTS
 66
     1
 10
0.0
 20
0.0
 30
0.0
  0
VERTEX
  5
189
  8
DEFPOINTS
 10
-21.65
 20
17.075
 30
0.0
  0
VERTEX
  5
18A
  8
DEFPOINTS
 10
-21.65
 20
21.65
 30
0.0
  0
VERTEX
  5
18B
  8
DEFPOINTS
 10
-27.65
 20
21.65
 30
0.0
  0
VERTEX
  5
18C
  8
DEFPOINTS
 10
-27.65
 20
17.075
 30
0.0
  0
SEQEND
  5
18D
  8
DEFPOINTS
  0
POLYLINE
  5
12B
  8
DEFPOINTS
 66
     1
 10
0.0
 20
0.0
 30
0.0
  0
VERTEX
  5
18E
  8
DEFPOINTS
 10
-21.65
 20
21.65
 30
0.0
  0
VERTEX
  5
18F
  8
DEFPOINTS
 10
-21.44114
 20
24.65
 30
0.0
  0
VERTEX
  5
190
  8
DEFPOINTS
 10
-27.65
 20
24.65
 30
0.0
  0
VERTEX
  5
191
  8
DEFPOINTS
 10
-27.65
 20
21.65
 30
0.0
  0
SEQEND
  5
192
  8
DEFPOINTS
  0
POLYLINE
  5
12C
  8
DEFPOINTS
 66
     1
 10
0.0
 20
0.0
 30
0.0
  0
VERTEX
  5
193
  8
DEFPOINTS
 10
-21.44114
 20
24.65
 30
0.0
  0
VERTEX
  5
194
  8
DEFPOINTS
 10
-20.801983
 20
27.65
 30
0.0
  0
VERTEX
  5
195
  8
DEFPOINTS
 10
-27.65
 20
27.65
 30
0.0
  0
VERTEX
  5
196
  8
DEFPOINTS
 10
-27.65
 20
24.65
 30
0.0
  0
SEQEND
  5
197
  8
DEFPOINTS
  0
POLYLINE
  5
12D
  8
DEFPOINTS
 66
     1
 10
0.0
 20
0.0
 30
0.0
  0
VERTEX
  5
198
  8
DEFPOINTS
 10
-18.842178
 20
32.312777
 30
0.0
  0
VERTEX
  5
199
  8
DEFPOINTS
 10
-22.958343
 20
32.312777
 30
0.0
  0
VERTEX
  5
19A
  8
DEFPOINTS
 10
-24.65
 20
32.2
 30
0.0
  0
VERTEX
  5
19B
  8
DEFPOINTS
 10
-24.65
 20
30.2
 30
0.0
  0
VERTEX
  5
19C
  8
DEFPOINTS
 10
-19.890199
 20
30.2
 30
0.0
  0
VERTEX
  5
19D
  8
DEFPOINTS
 10
-18.842178
 20
32.312777
 30
0.0
  0
SEQEND
  5
19E
  8
DEFPOINTS
  0
POLYLINE
  5
12E
  8
DEFPOINTS
 66
     1
 10
0.0
 20
0.0
 30
0.0
  0
VERTEX
  5
19F
  8
DEFPOINTS
 10
-20.801983
 20
27.65
 30
0.0
  0
VERTEX
  5
1A0
  8
DEFPOINTS
 10
-19.890199
 20
30.2
 30
0.0
  0
VERTEX
  5
1A1
  8
DEFPOINTS
 10
-24.65
 20
30.2
 30
0.0
  0
VERTEX
  5
1A2
  8
DEFPOINTS
 10
-27.65
 20
30.0
 30
0.0
  0
VERTEX
  5
1A3
  8
DEFPOINTS
 10
-27.65
 20
27.65
 30
0.0
  0
VERTEX
  5
1A4
  8
DEFPOINTS
 10
-20.801983
 20
27.65
 30
0.0
  0
SEQEND
  5
1A5
  8
DEFPOINTS
  0
ENDSEC
  0
EOF
